<?xml version="1.0" encoding="iso-8859-1"?>
<!-- Generator: Adobe Illustrator 22.1.0, SVG Export Plug-In . SVG Version: 6.00 Build 0)  -->
<svg xmlns="http://www.w3.org/2000/svg" xmlns:xlink="http://www.w3.org/1999/xlink" version="1.1" id="Layer_3" x="0px" y="0px" viewBox="0 0 64 64" style="enable-background:new 0 0 64 64;" xml:space="preserve" width="512" height="512">
<g>
	<g>
		<circle style="fill:#F7CA6A;" cx="50" cy="50" r="12"/>
	</g>
	<g>
		<circle style="fill:#FFFFFF;" cx="50" cy="50" r="8"/>
	</g>
	<g>
		<path style="fill:#CBCFD7;" d="M13,13h7v-2l-7-2V4c0-1.105-0.895-2-2-2h0C9.895,2,9,2.895,9,4v5l-7,2v2h7v2l-3,3v2l5-2l5,2v-2    l-3-3V13z"/>
	</g>
	<g>
		<path style="fill:#D8DCE4;" d="M13,9V4c0-1.105-0.895-2-2-2S9,2.895,9,4v5l-7,2v2h7v0.983c1.788-1.228,3.211-2.946,4.075-4.962    L13,9z"/>
	</g>
	<g>
		<path d="M50,63c-7.168,0-13-5.832-13-13s5.832-13,13-13s13,5.832,13,13S57.168,63,50,63z M50,39c-6.065,0-11,4.935-11,11    s4.935,11,11,11s11-4.935,11-11S56.065,39,50,39z"/>
	</g>
	<g>
		<path d="M50,59c-4.963,0-9-4.037-9-9s4.037-9,9-9s9,4.037,9,9S54.963,59,50,59z M50,43c-3.859,0-7,3.141-7,7s3.141,7,7,7    s7-3.141,7-7S53.859,43,50,43z"/>
	</g>
	<g>
		<path d="M53,52h-3c-0.553,0-1-0.447-1-1v-6h2v5h2V52z"/>
	</g>
	<g>
		<rect x="17" y="5" width="3" height="2"/>
	</g>
	<g>
		<rect x="24" y="5" width="4" height="2"/>
	</g>
	<g>
		<rect x="32" y="5" width="4" height="2"/>
	</g>
	<g>
		<rect x="40" y="5" width="4" height="2"/>
	</g>
	<g>
		<path d="M51.499,8.471c-1.136-0.657-2.368-1.101-3.665-1.318l0.332-1.973c1.533,0.258,2.991,0.782,4.335,1.561L51.499,8.471z"/>
	</g>
	<g>
		<path d="M56.653,15.25c-0.341-1.323-0.918-2.557-1.717-3.666l1.623-1.168c0.944,1.312,1.628,2.771,2.031,4.334L56.653,15.25z"/>
	</g>
	<g>
		<path d="M57.821,23.417l-1.818-0.834c0.531-1.157,0.854-2.391,0.959-3.665l1.994,0.164C58.831,20.589,58.449,22.048,57.821,23.417    z"/>
	</g>
	<g>
		<path d="M50.333,30.26l-0.666-1.885c1.331-0.471,2.545-1.186,3.608-2.125l1.324,1.5C53.343,28.859,51.907,29.704,50.333,30.26z"/>
	</g>
	<g>
		<rect x="42" y="29" width="4" height="2"/>
	</g>
	<g>
		<rect x="34" y="29" width="4" height="2"/>
	</g>
	<g>
		<rect x="26" y="29" width="4" height="2"/>
	</g>
	<g>
		<rect x="18" y="29" width="4" height="2"/>
	</g>
	<g>
		<path d="M10.6,32.8l-1.201-1.6c1.315-0.988,2.797-1.654,4.403-1.98l0.396,1.961C12.886,31.446,11.676,31.991,10.6,32.8z"/>
	</g>
	<g>
		<path d="M7,40H5c0-1.529,0.308-3.01,0.916-4.4L7.748,36.4C7.252,37.537,7,38.748,7,40z"/>
	</g>
	<g>
		<path d="M9.398,48.8c-1.52-1.143-2.724-2.663-3.482-4.399L7.748,43.6c0.621,1.42,1.607,2.666,2.852,3.601L9.398,48.8z"/>
	</g>
	<g>
		<path d="M18,51h-2c-0.737,0-1.477-0.074-2.198-0.22l0.396-1.961C14.789,48.939,15.396,49,16,49h2V51z"/>
	</g>
	<g>
		<rect x="22" y="49" width="4" height="2"/>
	</g>
	<g>
		<rect x="30" y="49" width="4" height="2"/>
	</g>
	<g>
		<path d="M16,21c-0.126,0-0.252-0.023-0.371-0.071L11,19.077l-4.629,1.852c-0.306,0.121-0.656,0.085-0.932-0.101    C5.165,20.642,5,20.332,5,20v-2c0-0.266,0.105-0.52,0.293-0.707L8,14.586V14H2c-0.553,0-1-0.447-1-1v-2    c0-0.446,0.296-0.839,0.726-0.962L8,8.246V4c0-1.654,1.346-3,3-3s3,1.346,3,3v4.246l6.274,1.792C20.704,10.161,21,10.554,21,11v2    c0,0.553-0.447,1-1,1h-6v0.586l2.707,2.707C16.895,17.48,17,17.734,17,18v2c0,0.332-0.165,0.642-0.439,0.828    C16.393,20.941,16.197,21,16,21z M11,17c0.126,0,0.252,0.023,0.371,0.071L15,18.523v-0.109l-2.707-2.707    C12.105,15.52,12,15.266,12,15v-2c0-0.553,0.447-1,1-1h6v-0.246l-6.274-1.792C12.296,9.839,12,9.446,12,9V4c0-0.552-0.448-1-1-1    s-1,0.448-1,1v5c0,0.446-0.296,0.839-0.726,0.962L3,11.754V12h6c0.553,0,1,0.447,1,1v2c0,0.266-0.105,0.52-0.293,0.707L7,18.414    v0.109l3.629-1.452C10.748,17.023,10.874,17,11,17z"/>
	</g>
</g>
</svg>
